<svg width="60" height="60" viewBox="0 0 60 60" fill="none" xmlns="http://www.w3.org/2000/svg">
<g clip-path="url(#clip0_275_51)">
<path d="M9.97006 60C7.21557 60 4.86527 59.0269 2.91916 57.0808C0.973054 55.1347 0 52.7844 0 50.0299C0 47.2755 0.973054 44.9251 2.91916 42.979C4.86527 41.0329 7.21557 40.0599 9.97006 40.0599H17.9641V19.9401H9.97006C7.21557 19.9401 4.86527 18.9671 2.91916 17.021C0.973054 15.0748 0 12.7246 0 9.97006C0 7.21557 0.973054 4.86527 2.91916 2.91916C4.86527 0.973054 7.21557 0 9.97006 0C12.7246 0 15.0748 0.973054 17.021 2.91916C18.9671 4.86527 19.9401 7.21557 19.9401 9.97006V17.9641H40.0599V9.97006C40.0599 7.21557 41.0329 4.86527 42.979 2.91916C44.9251 0.973054 47.2755 0 50.0299 0C52.7844 0 55.1347 0.973054 57.0808 2.91916C59.0269 4.86527 60 7.21557 60 9.97006C60 12.7246 59.0269 15.0748 57.0808 17.021C55.1347 18.9671 52.7844 19.9401 50.0299 19.9401H42.0359V40.0599H50.0299C52.7844 40.0599 55.1347 41.0329 57.0808 42.979C59.0269 44.9251 60 47.2755 60 50.0299C60 52.7844 59.0269 55.1347 57.0808 57.0808C55.1347 59.0269 52.7844 60 50.0299 60C47.2755 60 44.9251 59.0269 42.979 57.0808C41.0329 55.1347 40.0599 52.7844 40.0599 50.0299V42.0359H19.9401V50.0299C19.9401 52.7844 18.9671 55.1347 17.021 57.0808C15.0748 59.0269 12.7246 60 9.97006 60ZM9.97006 58.0239C12.1856 58.0239 14.0719 57.2455 15.6287 55.6886C17.1856 54.1317 17.9641 52.2455 17.9641 50.0299V42.0359H9.97006C7.75449 42.0359 5.86826 42.8144 4.31138 44.3713C2.75449 45.9281 1.97605 47.8144 1.97605 50.0299C1.97605 52.2455 2.75449 54.1317 4.31138 55.6886C5.86826 57.2455 7.75449 58.0239 9.97006 58.0239ZM50.0299 58.0239C52.2455 58.0239 54.1317 57.2455 55.6886 55.6886C57.2455 54.1317 58.0239 52.2455 58.0239 50.0299C58.0239 47.8144 57.2455 45.9281 55.6886 44.3713C54.1317 42.8144 52.2455 42.0359 50.0299 42.0359H42.0359V50.0299C42.0359 52.2455 42.8144 54.1317 44.3713 55.6886C45.9281 57.2455 47.8144 58.0239 50.0299 58.0239ZM19.9401 40.0599H40.0599V19.9401H19.9401V40.0599ZM9.97006 17.9641H17.9641V9.97006C17.9641 7.75449 17.1856 5.86826 15.6287 4.31138C14.0719 2.75449 12.1856 1.97605 9.97006 1.97605C7.75449 1.97605 5.86826 2.75449 4.31138 4.31138C2.75449 5.86826 1.97605 7.75449 1.97605 9.97006C1.97605 12.1856 2.75449 14.0719 4.31138 15.6287C5.86826 17.1856 7.75449 17.9641 9.97006 17.9641ZM42.0359 17.9641H50.0299C52.2455 17.9641 54.1317 17.1856 55.6886 15.6287C57.2455 14.0719 58.0239 12.1856 58.0239 9.97006C58.0239 7.75449 57.2455 5.86826 55.6886 4.31138C54.1317 2.75449 52.2455 1.97605 50.0299 1.97605C47.8144 1.97605 45.9281 2.75449 44.3713 4.31138C42.8144 5.86826 42.0359 7.75449 42.0359 9.97006V17.9641Z" fill="#008B5E"/>
</g>
<defs>
<clipPath id="clip0_275_51">
<rect width="60" height="60" fill="white"/>
</clipPath>
</defs>
</svg>
