<svg width="60" height="60" viewBox="0 0 60 60" fill="none" xmlns="http://www.w3.org/2000/svg">
<g clip-path="url(#clip0_275_59)">
<path d="M7.35849 60C5.30997 60 3.57143 59.2857 2.14286 57.8571C0.714286 56.4286 0 54.69 0 52.6415C0 52.372 0.0808627 52.1563 0.242588 51.9946C0.404313 51.8329 0.619946 51.752 0.889488 51.752C1.15903 51.752 1.37466 51.8329 1.53639 51.9946C1.69811 52.1563 1.77898 52.372 1.77898 52.6415C1.77898 54.1509 2.33154 55.4582 3.43666 56.5633C4.54178 57.6685 5.84906 58.221 7.35849 58.221C8.7062 58.221 10.1887 57.6685 11.8059 56.5633C13.4232 55.4582 15.0135 54.124 16.5768 52.5606C18.1941 50.9973 19.69 49.3666 21.0647 47.6685C22.4394 45.9703 23.531 44.5283 24.3396 43.3423C25.7412 41.2938 26.8868 39.1509 27.7763 36.9137C28.6658 34.6766 29.1105 32.372 29.1105 30V0.889488C29.1105 0.619946 29.1914 0.404313 29.3531 0.242588C29.5148 0.0808627 29.7305 0 30 0C30.2695 0 30.4852 0.0808627 30.6469 0.242588C30.8086 0.404313 30.8895 0.619946 30.8895 0.889488V30C30.8895 32.372 31.3342 34.6766 32.2237 36.9137C33.1132 39.1509 34.2588 41.2938 35.6604 43.3423C36.469 44.5283 37.5606 45.9703 38.9353 47.6685C40.31 49.3666 41.8059 50.9973 43.4232 52.5606C44.9865 54.124 46.5768 55.4582 48.1941 56.5633C49.8113 57.6685 51.2938 58.221 52.6415 58.221C54.2048 58.221 55.5256 57.6685 56.6038 56.5633C57.6819 55.4582 58.221 54.1509 58.221 52.6415C58.221 52.372 58.3019 52.1563 58.4636 51.9946C58.6253 51.8329 58.841 51.752 59.1105 51.752C59.3801 51.752 59.5957 51.8329 59.7574 51.9946C59.9191 52.1563 60 52.372 60 52.6415C60 54.69 59.2857 56.4286 57.8571 57.8571C56.4286 59.2857 54.69 60 52.6415 60C50.593 60 48.6658 59.4205 46.8598 58.2615C45.0539 57.1024 43.3423 55.6873 41.7251 54.0162C40.1078 52.3989 38.5579 50.6739 37.0755 48.841C35.593 47.0081 34.2588 45.3908 33.0728 43.9892C32.6954 43.558 32.2507 43.1536 31.7385 42.7763C31.2264 42.3989 30.6469 42.2102 30 42.2102C29.3531 42.2102 28.7736 42.3854 28.2615 42.7358C27.7493 43.0863 27.3046 43.4771 26.9272 43.9084C25.7952 45.31 24.4879 46.9407 23.0054 48.8005C21.5229 50.6604 19.973 52.3989 18.3558 54.0162C16.7385 55.6873 15.027 57.1024 13.221 58.2615C11.4151 59.4205 9.46092 60 7.35849 60ZM10.7547 51.2668L2.66846 44.8787C2.07547 44.3935 1.61725 43.841 1.2938 43.221C0.970351 42.6011 0.808625 41.9137 0.808625 41.159C0.808625 40.4043 0.956873 39.7035 1.25337 39.0566C1.54987 38.4097 1.96766 37.8437 2.50674 37.3585C2.66846 37.2507 2.8841 37.1833 3.15364 37.1563C3.42318 37.1294 3.63881 37.2237 3.80054 37.4394C3.90836 37.6011 3.97574 37.8302 4.0027 38.1267C4.02965 38.4232 3.93531 38.6523 3.71968 38.814C3.45013 39.0297 3.19407 39.3396 2.95148 39.7439C2.7089 40.1483 2.5876 40.6199 2.5876 41.159C2.5876 41.5364 2.66846 41.9407 2.83019 42.372C2.99191 42.8032 3.28841 43.1806 3.71968 43.504L12.2102 50.1348C11.9946 50.3504 11.7655 50.5391 11.5229 50.7008C11.2803 50.8625 11.0243 51.0512 10.7547 51.2668ZM18.841 42.7763L7.52022 33.6388C6.92722 33.1536 6.469 32.6011 6.14555 31.9811C5.8221 31.3612 5.66038 30.6739 5.66038 29.9191C5.66038 29.1644 5.79515 28.4501 6.06469 27.7763C6.33423 27.1024 6.7655 26.5229 7.35849 26.0377C7.52022 25.9299 7.73585 25.876 8.00539 25.876C8.27493 25.876 8.49057 25.9838 8.65229 26.1995C8.76011 26.3612 8.82749 26.5768 8.85445 26.8464C8.8814 27.1159 8.78706 27.3315 8.57143 27.4933C8.24798 27.7089 7.97844 28.0458 7.7628 28.504C7.54717 28.9623 7.43935 29.4609 7.43935 30C7.43935 30.3774 7.52022 30.7817 7.68194 31.2129C7.84367 31.6442 8.14016 32.0216 8.57143 32.345L19.8922 41.3208C19.6765 41.5903 19.5013 41.8329 19.3666 42.0485C19.2318 42.2642 19.0566 42.5067 18.841 42.7763ZM23.6927 31.6981L12.372 22.5606C11.779 22.0755 11.3208 21.496 10.9973 20.8221C10.6739 20.1482 10.5121 19.434 10.5121 18.6792C10.5121 17.9245 10.6739 17.2102 10.9973 16.5364C11.3208 15.8625 11.779 15.2561 12.372 14.717C12.5337 14.6092 12.7359 14.5553 12.9784 14.5553C13.221 14.5553 13.4232 14.6631 13.5849 14.8787C13.6927 15.0404 13.7736 15.2561 13.8275 15.5256C13.8814 15.7951 13.7736 16.0108 13.504 16.1725C13.2884 16.3342 13.0323 16.6577 12.7358 17.1429C12.4394 17.628 12.2911 18.1671 12.2911 18.7601C12.2911 18.9757 12.6954 19.7574 13.504 21.1051L23.7736 29.5148V30C23.7736 30.3234 23.7601 30.6065 23.7332 30.8491C23.7062 31.0916 23.6927 31.3747 23.6927 31.6981ZM23.7736 16.4151L17.062 10.8356C16.5229 10.3504 16.1051 9.79784 15.8086 9.1779C15.5121 8.55795 15.3639 7.89757 15.3639 7.19677C15.3639 5.90296 15.8356 4.78437 16.779 3.84097C17.7224 2.89757 18.841 2.42588 20.1348 2.42588H21.3073C21.7655 2.42588 21.9946 2.72237 21.9946 3.31536C21.9946 3.90836 21.7655 4.20485 21.3073 4.20485H20.1348C19.2722 4.20485 18.558 4.5283 17.9919 5.1752C17.4259 5.8221 17.1429 6.52291 17.1429 7.27763C17.1429 7.65499 17.2237 8.03234 17.3854 8.4097C17.5472 8.78706 17.8167 9.11051 18.1941 9.38005L23.7736 14.0701V16.4151ZM36.3073 31.6981C36.3073 31.3747 36.2938 31.0916 36.2668 30.8491C36.2399 30.6065 36.2264 30.3234 36.2264 30V29.5148L46.496 21.1051C46.9272 20.7278 47.3315 19.9461 47.7089 18.7601C47.7089 18.1671 47.5606 17.6146 47.2641 17.1024C46.9677 16.5903 46.7116 16.2534 46.496 16.0916C46.2803 15.9299 46.186 15.7278 46.2129 15.4852C46.2399 15.2426 46.3073 15.0404 46.4151 14.8787C46.5768 14.6631 46.8059 14.5553 47.1024 14.5553C47.3989 14.5553 47.6011 14.6092 47.7089 14.717C48.3019 15.2561 48.7466 15.8625 49.0431 16.5364C49.3396 17.2102 49.4879 17.9245 49.4879 18.6792C49.4879 19.434 49.3261 20.1482 49.0027 20.8221C48.6792 21.496 48.221 22.0755 47.628 22.5606L36.3073 31.6981ZM36.2264 16.2534V13.9084L41.8059 9.46092C42.1294 9.19138 42.3854 8.86792 42.5741 8.49057C42.7628 8.11321 42.8571 7.70889 42.8571 7.27763C42.8571 6.41509 42.5741 5.68733 42.0081 5.09434C41.442 4.50135 40.7278 4.20485 39.8652 4.20485H38.6927C38.2345 4.20485 38.0054 3.90836 38.0054 3.31536C38.0054 2.72237 38.2345 2.42588 38.6927 2.42588H39.8652C41.159 2.42588 42.2776 2.89757 43.221 3.84097C44.1644 4.78437 44.6361 5.90296 44.6361 7.19677C44.6361 7.89757 44.4879 8.55795 44.1914 9.1779C43.8949 9.79784 43.4771 10.3504 42.938 10.8356L36.2264 16.2534ZM41.159 42.6954C40.9434 42.4259 40.7682 42.2102 40.6334 42.0485C40.4987 41.8868 40.3234 41.6442 40.1078 41.3208L51.3477 32.1833C51.7251 31.8598 52.1024 31.0782 52.4798 29.8383C52.4798 29.407 52.1563 28.6523 51.5094 27.5741C51.2938 27.3585 51.1456 27.1159 51.0647 26.8464C50.9838 26.5768 51.0512 26.3342 51.2668 26.1186C51.4286 25.903 51.6577 25.7951 51.9542 25.7951C52.2507 25.7951 52.4528 25.8491 52.5606 25.9569C53.1536 26.442 53.5984 27.0216 53.8949 27.6954C54.1914 28.3693 54.3396 29.0836 54.3396 29.8383C54.3396 30.593 54.1779 31.3073 53.8544 31.9811C53.531 32.655 53.0728 33.2345 52.4798 33.7197L41.159 42.6954ZM49.3261 51.2668C49.0027 51.1051 48.7332 50.9434 48.5175 50.7817C48.3019 50.6199 48.0863 50.4043 47.8706 50.1348L56.2803 43.504C56.6577 43.1806 57.035 42.3989 57.4124 41.159C57.4124 40.6739 57.3046 40.2156 57.0889 39.7844C56.8733 39.3531 56.6307 39.0297 56.3612 38.814C56.1455 38.6523 56.0377 38.4232 56.0377 38.1267C56.0377 37.8302 56.0916 37.6011 56.1995 37.4394C56.3612 37.2237 56.5768 37.1294 56.8464 37.1563C57.1159 37.1833 57.3315 37.2507 57.4933 37.3585C58.0323 37.8437 58.4501 38.4097 58.7466 39.0566C59.0431 39.7035 59.1914 40.4043 59.1914 41.159C59.1914 41.9137 59.0296 42.6146 58.7062 43.2615C58.3827 43.9084 57.9515 44.4474 57.4124 44.8787L49.3261 51.2668Z" fill="#008B5E"/>
</g>
<defs>
<clipPath id="clip0_275_59">
<rect width="60" height="60" fill="white"/>
</clipPath>
</defs>
</svg>
