<svg width="60" height="60" viewBox="0 0 60 60" fill="none" xmlns="http://www.w3.org/2000/svg">
<path d="M21.7164 57.4273C19.4279 57.4273 17.4254 56.6887 15.709 55.2114C13.9925 53.734 12.9104 51.9055 12.4627 49.7259C11.9154 50.7431 11.1318 51.5302 10.1119 52.0872C9.09204 52.6442 7.98507 52.9227 6.79104 52.9227C4.9005 52.9227 3.29602 52.2809 1.97761 50.9974C0.659204 49.7138 0 48.1517 0 46.3111C0 44.5189 0.634328 42.969 1.90299 41.6612C3.17164 40.3534 4.80099 39.7479 6.79104 39.8448C5.64677 38.9729 4.72637 37.8589 4.02985 36.5026C3.33333 35.1464 2.98507 33.7417 2.98507 32.2886C2.98507 30.8355 3.34577 29.4551 4.06716 28.1473C4.78856 26.8395 5.8209 25.7739 7.16418 24.9505C7.31343 25.1442 7.46269 25.3743 7.61194 25.6407C7.76119 25.9071 7.88557 26.1614 7.98507 26.4036C6.89055 27.1301 6.06965 28.0262 5.52239 29.0918C4.97512 30.1574 4.70149 31.2472 4.70149 32.3613C4.70149 35.5581 5.87065 37.6409 8.20895 38.6096C10.5473 39.5784 13.01 40.3049 15.597 40.7893L15.8209 41.3705C15.2736 42.9205 14.8383 44.2404 14.5149 45.3303C14.1915 46.4201 14.0299 47.4251 14.0299 48.3454C14.0299 50.3314 14.7886 52.063 16.306 53.5403C17.8234 55.0176 19.6269 55.7563 21.7164 55.7563C23.9055 55.7563 25.7214 54.9934 27.1642 53.4676C28.607 51.9419 29.7761 50.1134 30.6716 47.9822C31.5672 45.8509 32.2637 43.635 32.7612 41.3342C33.2587 39.0335 33.6816 37.1323 34.0299 35.6308L35.6716 36.1394C35.3234 37.9315 34.8756 40.0506 34.3284 42.4967C33.7811 44.9428 33.01 47.2677 32.0149 49.4716C31.0199 51.6755 29.7015 53.5524 28.0597 55.1024C26.4179 56.6524 24.3035 57.4273 21.7164 57.4273ZM6.79104 51.3243C8.23383 51.3243 9.45274 50.8399 10.4478 49.8712C11.4428 48.9025 11.9403 47.7158 11.9403 46.3111C11.9403 44.9549 11.4428 43.7803 10.4478 42.7873C9.45274 41.7944 8.23383 41.2979 6.79104 41.2979C5.39801 41.2979 4.19154 41.7944 3.17164 42.7873C2.15174 43.7803 1.64179 44.9549 1.64179 46.3111C1.64179 47.7158 2.15174 48.9025 3.17164 49.8712C4.19154 50.8399 5.39801 51.3243 6.79104 51.3243ZM24.403 38.537C22.4627 36.8417 20.6965 35.2675 19.1045 33.8144C17.5124 32.3613 16.1318 30.9203 14.9627 29.4914C13.7935 28.0625 12.8856 26.6458 12.2388 25.2411C11.592 23.8364 11.2687 22.3591 11.2687 20.8091C11.2687 18.242 12.1766 16.0865 13.9925 14.3428C15.8085 12.5991 18.01 11.7272 20.597 11.7272C21.2935 11.7272 21.9527 11.7635 22.5746 11.8362C23.1965 11.9089 23.7562 12.0421 24.2537 12.2358C23.9055 11.703 23.6443 11.1823 23.4701 10.6737C23.296 10.1651 23.209 9.64443 23.209 9.11162C23.209 7.27103 23.8682 5.70894 25.1866 4.42536C26.505 3.14179 28.1095 2.5 30 2.5C31.8905 2.5 33.495 3.14179 34.8134 4.42536C36.1318 5.70894 36.791 7.27103 36.791 9.11162C36.791 9.64443 36.704 10.1651 36.5299 10.6737C36.3557 11.1823 36.0945 11.703 35.7463 12.2358C36.2438 12.0421 36.8035 11.9089 37.4254 11.8362C38.0473 11.7635 38.7065 11.7272 39.403 11.7272C41.393 11.7272 43.1468 12.2358 44.6642 13.253C46.1816 14.2701 47.2886 15.6264 47.9851 17.3217H47.0896C46.7413 17.3217 46.4428 17.3459 46.194 17.3943C45.597 16.135 44.7015 15.142 43.5075 14.4155C42.3134 13.6889 40.9453 13.3256 39.403 13.3256C37.5124 13.3256 35.9826 13.7858 34.8134 14.7061C33.6443 15.6264 32.1393 17.1279 30.2985 19.2107H29.6269C27.7861 17.0795 26.2811 15.5658 25.1119 14.6697C23.9428 13.7737 22.4378 13.3256 20.597 13.3256C18.408 13.3256 16.5796 14.0401 15.1119 15.469C13.6443 16.8978 12.9104 18.6779 12.9104 20.8091C12.9104 21.9232 13.1965 23.0856 13.7687 24.2966C14.3408 25.5075 15.1741 26.7911 16.2687 28.1473C17.3632 29.5035 18.694 30.9445 20.2612 32.4703C21.8284 33.996 23.607 35.6308 25.597 37.3745L24.403 38.537ZM30 14.1248C31.4428 14.1248 32.6617 13.6405 33.6567 12.6717C34.6517 11.703 35.1493 10.5163 35.1493 9.11162C35.1493 7.70696 34.6517 6.52026 33.6567 5.55152C32.6617 4.58278 31.4428 4.09841 30 4.09841C28.5572 4.09841 27.3383 4.58278 26.3433 5.55152C25.3483 6.52026 24.8507 7.70696 24.8507 9.11162C24.8507 10.5163 25.3483 11.703 26.3433 12.6717C27.3383 13.6405 28.5572 14.1248 30 14.1248ZM38.0597 57.5C37.4627 57.5 36.8781 57.4395 36.306 57.3184C35.7338 57.1973 35.1741 57.0156 34.6269 56.7735C34.7264 56.5797 34.8632 56.3375 35.0373 56.0469C35.2114 55.7563 35.3483 55.4899 35.4478 55.2477C35.8955 55.4414 36.3557 55.5868 36.8284 55.6836C37.301 55.7805 37.7612 55.8289 38.209 55.8289C40.2985 55.8289 42.102 55.0903 43.6194 53.6129C45.1368 52.1356 45.8955 50.3798 45.8955 48.3454C45.8955 47.4251 45.7214 46.4322 45.3731 45.3666C45.0249 44.301 44.602 42.9932 44.1045 41.4432L44.403 40.9346C47.0896 40.4502 49.5771 39.7116 51.8657 38.7186C54.1542 37.7257 55.2985 35.6308 55.2985 32.434C55.2985 29.9152 54.403 28.0262 52.6119 26.7668C50.8209 25.5075 48.7562 24.8778 46.4179 24.8778C44.4279 24.8778 42.102 25.1926 39.4403 25.8223C36.7786 26.452 33.7313 27.3239 30.2985 28.4379L29.8507 26.8395C33.0846 25.8223 36.0323 24.9505 38.694 24.2239C41.3557 23.4974 43.7811 23.1341 45.9702 23.1341C48.806 23.1341 51.3433 23.9333 53.5821 25.5317C55.8209 27.1301 56.9403 29.4309 56.9403 32.434C56.9403 33.8871 56.6169 35.2554 55.9701 36.539C55.3234 37.8225 54.403 38.9245 53.209 39.8448C55.199 39.7963 56.8284 40.4139 58.097 41.6975C59.3657 42.9811 60 44.5189 60 46.3111C60 48.1517 59.3408 49.7259 58.0224 51.0337C56.704 52.3415 55.0995 52.9954 53.209 52.9954C52.0149 52.9954 50.908 52.7169 49.8881 52.1598C48.8682 51.6028 48.0846 50.7915 47.5373 49.7259C47.0398 51.9055 45.9204 53.7462 44.1791 55.2477C42.4378 56.7492 40.398 57.5 38.0597 57.5ZM53.2836 51.397C54.6766 51.397 55.8706 50.9005 56.8657 49.9075C57.8607 48.9146 58.3582 47.74 58.3582 46.3838C58.3582 45.0275 57.8483 43.8408 56.8284 42.8236C55.8085 41.8065 54.602 41.2979 53.209 41.2979C51.8159 41.2979 50.6095 41.7944 49.5896 42.7873C48.5697 43.7803 48.0597 44.9549 48.0597 46.3111C48.0597 47.6673 48.5821 48.854 49.6269 49.8712C50.6716 50.8884 51.8905 51.397 53.2836 51.397Z" fill="#008B5E"/>
</svg>
