<svg xmlns="http://www.w3.org/2000/svg" width="230" height="96" viewBox="0 0 750 275" version="1.1"><path d="M 453 104.500 L 453 120 461.500 120 L 470 120 470 113 L 470 106 478 106 L 486 106 486 146.500 L 486 187 494.500 187 L 503 187 503 138 L 503 89 478 89 L 453 89 453 104.500 M 519.174 91.314 C 517.068 93.557, 517 94.371, 517 117.360 L 517 141.091 519.455 143.545 C 521.458 145.549, 522.907 146, 527.343 146 L 532.777 146 525.306 164.750 C 521.197 175.063, 517.594 184.287, 517.301 185.250 C 516.821 186.821, 517.632 187, 525.211 187 L 533.654 187 541.077 168.300 L 548.500 149.600 548.772 168.300 L 549.044 187 557.522 187 L 566 187 566 138 L 566 89 543.674 89 C 521.631 89, 521.321 89.029, 519.174 91.314 M 580 135.545 L 580 182.091 582.455 184.545 C 584.894 186.984, 585.033 187, 604.500 187 C 623.967 187, 624.106 186.984, 626.545 184.545 L 629 182.091 629 135.545 L 629 89 620.500 89 L 612 89 612 129.500 L 612 170 604.500 170 L 597 170 597 129.500 L 597 89 588.500 89 L 580 89 580 135.545 M 645.452 91.646 L 643 94.292 643 140.646 L 643 187 651.500 187 L 660 187 660 162.797 L 660 138.594 664 142.500 L 668 146.406 672 142.500 L 676 138.594 676 162.797 L 676 187 684.500 187 L 693 187 693 142.065 C 693 113.395, 692.624 96.141, 691.961 94.397 C 690.381 90.241, 688.087 89.066, 681.500 89.037 L 675.500 89.011 672.024 103.586 C 670.113 111.602, 668.287 118.323, 667.966 118.521 C 667.645 118.719, 666.102 113.620, 664.537 107.191 C 659.598 86.903, 660.823 89, 653.905 89 C 648.701 89, 647.579 89.351, 645.452 91.646 M 89.500 92 C 88.400 92.473, 87.870 92.891, 88.321 92.930 C 88.773 92.968, 88.470 93.673, 87.647 94.495 C 86.825 95.318, 84.690 98.580, 82.902 101.745 C 81.115 104.910, 73.264 118.525, 65.455 132 C 39.729 176.396, 29 195.161, 29 195.756 C 29 196.078, 28.255 197.165, 27.345 198.171 C 26.029 199.626, 25.978 200.003, 27.095 200.015 C 28.241 200.028, 28.223 200.218, 27 201.046 C 25.887 201.799, 26.210 201.896, 28.250 201.422 C 31.458 200.677, 32 202.460, 29.250 204.714 C 28.288 205.503, 28.077 205.854, 28.783 205.495 C 31.466 204.128, 36.029 203.144, 35.467 204.053 C 34.300 205.941, 37.559 203.833, 39.093 201.708 C 39.970 200.493, 48.419 186, 57.870 169.500 C 67.321 153, 75.469 138.825, 75.977 138 C 76.485 137.175, 79.504 132, 82.687 126.500 C 85.869 121, 89.941 114.051, 91.736 111.059 C 94.501 106.449, 95 104.654, 95 99.309 C 95 95.839, 94.662 93.053, 94.250 93.118 C 92.257 93.433, 90.944 92.899, 91.500 92 C 92.211 90.850, 92.176 90.850, 89.500 92 M 534 117.500 L 534 129 541.500 129 L 549 129 549 117.500 L 549 106 541.500 106 L 534 106 534 117.500 M 69.860 173.729 C 48.211 211.279, 45.419 216.604, 46.860 217.601 C 51.358 220.713, 94 245, 94.967 245 C 95.582 245, 103.603 240.646, 112.792 235.326 C 121.982 230.005, 132.534 223.893, 136.241 221.744 C 139.949 219.595, 143.236 217.427, 143.546 216.926 C 143.856 216.425, 137.939 205.324, 130.397 192.257 C 122.855 179.191, 112.287 160.850, 106.912 151.500 C 101.536 142.150, 96.545 133.711, 95.819 132.746 C 94.651 131.194, 91.672 135.897, 69.860 173.729" stroke="none" fill="#7e7e7e" fill-rule="evenodd"/><path d="M 76.032 63.750 C 65.973 81.213, 48.013 112.343, 36.122 132.928 L 14.500 170.356 14.238 131.430 C 14.094 110.021, 14.172 91.995, 14.411 91.372 C 14.650 90.749, 24.859 84.471, 37.098 77.421 C 49.337 70.371, 60.378 63.679, 61.633 62.551 C 63.733 60.664, 75.129 41.847, 74.547 41.229 C 74.406 41.080, 68.263 44.488, 60.896 48.802 C 53.528 53.116, 37.825 62.198, 26 68.984 C 14.175 75.769, 3.670 82.032, 2.655 82.901 C 0.897 84.407, 0.827 86.970, 1.154 137.490 C 1.468 185.883, 1.647 190.647, 3.208 192.208 C 5.006 194.006, 12.990 198.368, 13.479 197.820 C 13.636 197.644, 19.588 187.375, 26.705 175 C 73.272 94.030, 93.382 59.350, 94.369 58.312 C 95.475 57.150, 106.247 75.359, 161.468 171.736 C 169.735 186.166, 176.831 197.979, 177.235 197.986 C 177.639 197.994, 180.202 196.627, 182.929 194.949 L 187.888 191.897 188.194 138.199 C 188.460 91.557, 188.303 84.290, 187 82.900 C 186.175 82.019, 171.550 73.285, 154.500 63.490 C 137.450 53.694, 121.813 44.622, 119.750 43.328 C 117.688 42.034, 116 41.374, 116 41.862 C 116 42.350, 118.546 47.122, 121.659 52.466 C 128.089 63.507, 126.067 61.918, 154.830 78.520 C 166.012 84.974, 175.355 90.761, 175.592 91.380 C 175.830 91.998, 175.906 110.049, 175.762 131.492 L 175.500 170.480 140.084 108.990 C 120.606 75.170, 102.658 44.013, 100.199 39.750 C 97.741 35.487, 95.413 32, 95.026 32 C 94.638 32, 86.091 46.288, 76.032 63.750 M 91.915 85.701 C 90.587 88.340, 89.120 90.778, 88.655 91.118 C 87.809 91.736, 92.764 93.498, 94.333 93.136 C 94.791 93.031, 95.016 96.108, 94.833 99.975 C 94.650 103.841, 94.765 107.116, 95.088 107.253 C 95.412 107.389, 109.093 130.766, 125.490 159.203 L 155.304 210.906 159.902 208.288 C 162.431 206.849, 164.892 205.330, 165.371 204.914 C 166.141 204.246, 98.546 85.490, 95.524 82.201 C 94.570 81.163, 93.844 81.867, 91.915 85.701 M 216.482 89.250 C 216.231 89.938, 212.870 106.204, 209.013 125.398 C 202.422 158.198, 202 161.098, 202 173.648 L 202 187 210.500 187 L 219 187 219 182 L 219 177 227.500 177 L 236 177 236 182 L 236 187 244 187 L 252 187 252 137.500 L 252 88 234.469 88 C 221.353 88, 216.822 88.315, 216.482 89.250 M 268.174 91.314 C 266.006 93.623, 266 93.758, 266 140.314 L 266 187 274.500 187 L 283 187 283 166 L 283 145 290 145 L 297 145 297 137.500 L 297 130 290 130 L 283 130 283 118 L 283 106 290.500 106 L 298 106 298 114 L 298 122 306.500 122 L 315 122 315 107.955 C 315 94.375, 314.919 93.828, 312.545 91.455 C 310.104 89.013, 309.984 89, 290.220 89 C 270.742 89, 270.306 89.046, 268.174 91.314 M 331.455 91.455 L 329 93.909 329 140.455 L 329 187 337.500 187 L 346 187 346 166 L 346 145 353.544 145 L 361.088 145 360.794 137.750 L 360.500 130.500 353.250 130.206 L 346 129.912 346 117.956 L 346 106 353.500 106 L 361 106 361 114 L 361 122 369.500 122 L 378 122 378 107.674 C 378 87.892, 379.445 89, 353.640 89 C 334.024 89, 333.895 89.014, 331.455 91.455 M 392 97.500 L 392 106 400 106 L 408 106 408 138 L 408 170 400 170 L 392 170 392 178.500 L 392 187 417 187 L 442 187 442 178.500 L 442 170 433.500 170 L 425 170 425 138.040 L 425 106.081 433.250 105.790 L 441.500 105.500 441.790 97.250 L 442.081 89 417.040 89 L 392 89 392 97.500 M 229.097 106.250 C 228.522 109.138, 226.245 121.400, 224.036 133.500 C 221.827 145.600, 219.782 156.512, 219.491 157.750 C 218.976 159.940, 219.175 160, 226.981 160 L 235 160 235 130.500 L 235 101 232.571 101 C 230.440 101, 230.014 101.644, 229.097 106.250 M 24.607 201.582 C 23.562 204.305, 23.879 204.761, 28.688 207.449 C 33.530 210.155, 36.656 210.151, 35.615 207.440 C 35.289 206.591, 35.385 206.120, 35.828 206.394 C 36.271 206.667, 37.423 205.453, 38.387 203.696 C 39.352 201.938, 39.548 201.190, 38.821 202.034 C 38.094 202.878, 36.239 203.662, 34.697 203.777 C 33.155 203.892, 30.905 204.464, 29.697 205.048 C 27.705 206.011, 27.663 205.978, 29.250 204.695 C 32.004 202.468, 31.457 200.677, 28.250 201.422 C 26.210 201.896, 25.887 201.799, 27 201.046 C 28.306 200.162, 28.287 200.029, 26.857 200.015 C 25.953 200.007, 24.941 200.712, 24.607 201.582" stroke="none" fill="#d3d3d3" fill-rule="evenodd"/></svg>