<svg width="145" height="18" viewBox="0 0 145 18" fill="none" xmlns="http://www.w3.org/2000/svg">
<path opacity="0.2" d="M1.88281 3.71813C7.42333 2.07935 13.0369 0.430396 18.9306 2.15061C24.2884 3.71813 28.1485 5.81496 34.2248 5.94728C39.8506 6.06942 45.0136 5.81496 50.4932 4.91923C54.8404 4.20671 58.9927 2.72062 63.4739 2.4865C68.99 2.19132 74.7132 2.72062 79.6814 4.82762C85.2584 7.19927 90.117 8.45125 96.5708 7.85071C103.524 7.20945 110.282 4.28814 116.821 2.38472C120.535 1.30577 123.957 0.786653 127.951 1.08184C133.504 1.49917 138.533 3.89117 144 4.52225" stroke="#00E89D" stroke-miterlimit="10" stroke-linecap="round"/>
<path opacity="0.2" d="M1 11.8988C7.25574 10.8659 14.8989 9.53644 21.2399 11.4397C23.9783 12.2622 26.1812 13.4769 29.1508 13.8594C35.3822 14.6724 40.6887 14.0603 46.774 13.0273C56.4619 11.3728 65.0057 9.95726 74.9979 12.004C79.1602 12.8552 82.9453 14.1942 86.8034 15.5236C91.5987 17.1782 97.4406 17.1495 102.601 16.8243C109.855 16.3652 115.782 14.242 122.403 12.1474C126.869 10.7415 137.056 8.60872 143.117 11.2675" stroke="#00E89D" stroke-miterlimit="10" stroke-linecap="round"/>
</svg>
